:SAMPLES-PER-SECOND 30
:FULLY-SPECIFIED
:DEGREES
712
root  60.7709 39.8966 34.8802 -176.728 -22.7418 173.382
RightUpLeg  9.09828 -14.0777 -18.2848
RightLeg  6.1023 -9.67717 3.07932
RightFoot  -7.68836 -0.315766 8.26893
RightToes  0.00048216 0.542163 -0.142577
Spine  9.16986 0.454371 8.09245
Spine1  6.62762 2.63412 -6.21357
HEad  1.54437 17.5589 -8.71154
LeftShoulder1  9.20683 -13.6873 -46.7278
LeftArm  -16.4921 28.4117 -25.9711
LeftForeArm  26.4658 -19.7091 -3.12658
LeftHand  -0.25398 0.0180481 5.50724
RightShoulder  4.79939 8.04741 35.5762
RightArm  -0.0255561 -16.2617 32.6484
RightForeArm  -3.98129 22.8968 5.18073
RightHand  -1.48185 3.58426 -19.354
LeftUpLeg  -12.1619 9.95808 9.83613
LeftLeg  3.65445 19.6569 -2.88727
LeftFoot  -3.80372 0.159814 -2.07498
LeftToes  1.06244e-005 4.65855e-005 -8.18506e-006
713
root  59.8365 39.6861 34.7352 -176.595 -24.8573 173.545
RightUpLeg  10.6986 -14.4781 -19.693
RightLeg  5.87833 -9.98177 3.26068
RightFoot  -7.74124 -0.404397 11.1433
RightToes  0.00048216 0.542163 -0.142577
Spine  9.17993 0.396624 7.97861
Spine1  6.363 2.5863 -6.38509
HEad  1.20081 16.3929 -8.20395
LeftShoulder1  9.16526 -13.7132 -46.4395
LeftArm  -16.2149 29.1416 -26.2399
LeftForeArm  27.3365 -19.6904 -3.09844
LeftHand  -0.25398 0.0180481 5.50724
RightShoulder  4.77366 7.91942 35.8106
RightArm  3.68134 -17.3846 32.0127
RightForeArm  -9.75948 22.3148 5.4765
RightHand  -1.33622 2.26913 -20.3292
LeftUpLeg  -12.4968 11.1197 10.0105
LeftLeg  4.08665 23.8892 -3.14414
LeftFoot  -4.13983 0.0990565 -1.16951
LeftToes  1.06244e-005 4.65855e-005 -8.18506e-006
714
root  58.7663 39.4642 34.5908 -176.403 -26.8713 173.519
RightUpLeg  12.1901 -14.9199 -21.4994
RightLeg  6.17189 -10.276 3.13324
RightFoot  -7.40346 -0.527123 13.8077
RightToes  0.00048216 0.542163 -0.142577
Spine  9.27418 0.291804 7.6056
Spine1  6.14586 2.46465 -6.44361
HEad  0.748551 15.5826 -7.74442
LeftShoulder1  9.10863 -13.5601 -46.5703
LeftArm  -15.9479 29.698 -26.2393
LeftForeArm  28.1946 -19.5598 -3.05832
LeftHand  -0.25398 0.0180481 5.50724
RightShoulder  4.75916 7.92928 35.6519
RightArm  5.46236 -19.3679 31.5427
RightForeArm  -11.8187 23.0994 5.60875
RightHand  -0.931174 0.0991206 -19.6405
LeftUpLeg  -13.1503 13.0395 9.08016
LeftLeg  6.31379 26.6139 -2.49127
LeftFoot  -4.33756 0.0486363 -0.387741
LeftToes  1.06244e-005 4.65855e-005 -8.18506e-006
715
root  57.5564 39.2469 34.439 -175.932 -28.8441 173.079
RightUpLeg  13.4252 -15.9256 -24.1154
RightLeg  7.18149 -10.0363 2.87494
RightFoot  -6.55521 -0.693546 15.4451
RightToes  0.00048216 0.542163 -0.142577
Spine  9.1243 0.218271 6.74754
Spine1  6.11204 2.27018 -6.1949
HEad  0.489019 14.4812 -7.18209
LeftShoulder1  9.04702 -13.3531 -46.8288
LeftArm  -16.1269 30.0409 -26.1689
LeftForeArm  28.5806 -19.1894 -2.99253
LeftHand  -0.25398 0.0180481 5.50724
RightShoulder  4.75435 8.02648 35.2673
RightArm  4.09078 -20.5101 31.7043
RightForeArm  -5.91479 20.8909 5.46233
RightHand  -1.02778 1.45535 -17.5526
LeftUpLeg  -14.2777 16.7668 6.75438
LeftLeg  9.49961 24.3546 -1.21012
LeftFoot  -2.88275 0.0958265 -1.00193
LeftToes  1.06244e-005 4.65855e-005 -8.18506e-006
716
root  56.249 38.9897 34.2905 -175.014 -31.0451 171.894
RightUpLeg  14.8139 -18.229 -28.0487
RightLeg  8.69085 -7.63291 2.54925
RightFoot  -5.56967 -1.02279 19.2996
RightToes  0.00048216 0.542163 -0.142577
Spine  8.83462 0.185996 5.22903
Spine1  6.17845 2.01707 -5.8803
HEad  0.0524474 12.4395 -6.50399
LeftShoulder1  9.01337 -13.2452 -46.9577
LeftArm  -16.2669 30.079 -26.0817
LeftForeArm  28.6023 -18.5556 -2.92862
LeftHand  -0.25398 0.0180481 5.50724
RightShoulder  4.74263 8.10981 34.877
RightArm  1.59702 -22.0611 32.0654
RightForeArm  -1.36771 19.5369 5.48687
RightHand  -1.13289 2.69523 -16.4134
LeftUpLeg  -16.414 22.7105 2.45438
LeftLeg  13.1721 16.092 0.367629
LeftFoot  -0.233854 0.271085 -2.77523
LeftToes  1.06244e-005 4.65855e-005 -8.18506e-006
